<?xml version="1.0" encoding="UTF-8"?>
<svg id="Layer_1" data-name="Layer 1" xmlns="http://www.w3.org/2000/svg" viewBox="0 0 1000 1000">
  <defs>
    <style>
      .cls-1 {
        fill: #fff;
      }
    </style>
  </defs>
  <rect width="1000" height="1000"/>
  <g>
    <g>
      <polygon class="cls-1" points="198.46 294.05 198.46 746.27 198.49 746.28 198.49 294.04 198.46 294.05"/>
      <polygon class="cls-1" points="388.93 856.24 388.94 856.24 388.94 184.08 388.93 184.08 388.93 856.24"/>
      <polygon class="cls-1" points="388.93 143.85 388.94 143.84 388.94 143.76 388.93 143.76 388.93 143.85"/>
      <polygon class="cls-1" points="407.54 143.76 407.53 143.76 407.53 143.84 407.54 143.85 407.54 143.76"/>
      <polygon class="cls-1" points="198.49 253.72 198.46 253.73 198.46 253.82 198.49 253.8 198.49 253.72"/>
      <polygon class="cls-1" points="407.53 184.08 407.53 856.24 407.54 856.24 407.54 184.08 407.53 184.08"/>
      <polygon class="cls-1" points="179.84 264.9 179.84 735.1 150.39 718.51 179.87 735.53 179.87 264.47 150.42 281.47 179.84 264.9"/>
      <polygon class="cls-1" points="774.24 604.18 774.29 604.15 774.29 531.44 774.24 531.44 774.24 604.18"/>
      <polygon class="cls-1" points="616.6 735.42 616.6 735.53 616.88 735.37 616.88 735.26 616.6 735.42"/>
      <polygon class="cls-1" points="774.24 644.52 774.29 644.5 774.29 644.38 774.24 644.41 774.24 644.52"/>
      <polygon class="cls-1" points="597.99 253.8 598.02 253.82 598.02 253.73 597.99 253.72 597.99 253.8"/>
      <polygon class="cls-1" points="597.99 746.28 598.02 746.27 598.02 294.05 597.99 294.04 597.99 746.28"/>
      <polygon class="cls-1" points="616.6 531.44 739.39 531.44 739.39 624.29 651.73 674.91 651.73 615.95 616.88 604.18 616.6 735.42 616.88 735.26 616.88 735.37 774.24 644.52 774.24 644.41 774.29 644.38 774.29 496.6 651.3 496.6 651.3 324.4 739.39 375.26 739.39 421.33 774.24 437.99 774.29 355.5 616.6 264.47 616.6 531.44"/>
      <polygon class="cls-1" points="179.84 264.9 150.42 281.47 144.99 284.53 144.99 284.6 144.99 499.68 57.14 499.68 57.14 335.32 57.14 335.08 22.29 351.76 22.29 355.44 22.29 644.31 57.14 663.94 57.14 534.53 144.99 534.53 144.99 715.4 144.99 715.47 150.39 718.51 179.84 735.1 179.84 264.9"/>
    </g>
    <path class="cls-1" d="M597.99,253.72l-34.85-20.12v.08l-120.75-69.72v-.08l-34.85-20.12v.08h0v40.23h0v672.16l34.85-20.12v-301.59h120.75v231.87l34.85-20.12v-452.25l.03.02v-40.24l-.03-.02v-.08.02ZM563.14,499.68h-120.75V204.2l120.75,69.72v225.76Z"/>
    <path class="cls-1" d="M388.93,143.76l-34.85,20.12v.08l-120.75,69.72v-.08l-34.85,20.12v.08l-.03.02v40.24l.03-.02v452.25l34.85,20.12v-231.87h120.75v301.59l34.85,20.12V184.08h.01v-40.24h-.01v-.08ZM354.09,499.68h-120.75v-225.76l120.75-69.72v295.48Z"/>
  </g>
  <g>
    <path class="cls-1" d="M873.11,647.85l-5.92-34.32h-31.24l-5.44,34.32h-21.3l26.28-148.17h31.01l28.17,148.17h-21.56ZM838.55,596.25h25.8l-13.49-78.11-12.31,78.11Z"/>
    <path class="cls-1" d="M977.71,543h-21.54v-19.64c0-2.84-.47-4.69-1.42-5.56s-2.84-1.3-5.68-1.3h-12.07c-2.84,0-4.73.44-5.68,1.3-.94.87-1.42,2.72-1.42,5.56v101.07c0,2.84.48,4.69,1.42,5.56.95.87,2.84,1.3,5.68,1.3h12.07c2.84,0,4.73-.44,5.68-1.3.95-.87,1.42-2.72,1.42-5.56v-36.22h-11.84v-16.57h33.38v55.39c0,14.05-7.34,21.07-22.01,21.07h-25.33c-14.68,0-22.02-7.02-22.02-21.07v-106.51c0-13.89,7.34-20.83,22.02-20.83h25.33c14.67,0,22.01,6.94,22.01,20.83v22.48h0Z"/>
  </g>
</svg>